# Blender 4.4.0
# www.blender.org
mtllib track.mtl
o Plane
v -1.000000 0.000000 1.000000
v 1.000000 0.000000 1.000000
v -1.000000 0.000000 -1.000000
v 1.000000 0.000000 -1.000000
v -37.656029 0.000000 1.000000
v -37.656029 0.000000 -1.000000
v -46.452400 0.000000 1.000000
v -46.452400 0.000000 -1.000000
v -49.455013 0.000000 1.000000
v -49.455013 0.000000 -1.000000
v -46.452400 0.000000 -48.316380
v -49.455013 0.000000 -48.316380
v -42.054214 0.000000 1.000000
v -42.054214 0.000000 -1.000000
v -44.253307 0.000000 -1.000000
v -44.253307 0.000000 1.000000
v -46.452400 0.000000 -6.937764
v -44.253307 0.000000 -6.937764
v -42.054214 0.000000 -5.855151
v -44.253307 0.000000 -5.855151
v -39.855122 0.000000 1.000000
v -39.855122 0.000000 -1.000000
v -42.054214 0.000000 -5.108826
v -39.855122 0.000000 -5.108826
v -37.656029 0.000000 -4.714251
v -39.855122 0.000000 -4.714251
v -1.000000 0.000000 -4.277866
v -37.656029 0.000000 -4.277866
v -1.000000 0.000000 -4.241810
v 1.000000 0.000000 -4.241810
v -44.070045 0.000000 -1.000000
v -44.070045 0.000000 -48.316380
v -46.452400 0.000000 -65.407280
v -49.455013 0.000000 -65.407280
v -44.070045 0.000000 -65.407280
v -46.452400 0.000000 -126.812256
v -49.455013 0.000000 -126.812256
v -44.070045 0.000000 -126.812256
v -46.452400 0.000000 -96.109772
v -44.070045 0.000000 -96.109772
v -49.455013 0.000000 -96.109772
v -44.070045 0.000000 -111.461014
v -46.452400 0.000000 -111.461014
v -49.455013 0.000000 -111.461014
v -44.070045 0.000000 -119.136635
v -46.452400 0.000000 -119.136635
v -49.455013 0.000000 -119.136635
v -44.070045 0.000000 -122.983864
v -46.452400 0.000000 -122.983864
v -49.455013 0.000000 -122.983864
v -46.452400 0.000000 -103.785393
v -49.455013 0.000000 -103.785393
v -44.070045 0.000000 -103.785393
v -44.070045 0.000000 -107.783966
v -46.452400 0.000000 -107.783966
v -49.455013 0.000000 -107.783966
v -46.452400 0.000000 -99.947586
v -49.455013 0.000000 -99.947586
v -44.070045 0.000000 -99.947586
v -46.452400 0.000000 -115.030029
v -49.455013 0.000000 -115.030029
v -44.070045 0.000000 -115.030029
v 115.698616 0.000000 -126.812256
v 115.698616 0.000000 -119.136635
v 115.698616 0.000000 -122.983864
v 115.698616 0.000000 -115.030029
v -26.780596 0.000000 -111.461014
v -26.780596 0.000000 -115.030029
v -31.040087 0.000000 -111.461014
v -31.040087 0.000000 -107.783966
v -33.300262 0.000000 -103.785393
v -33.300262 0.000000 -107.783966
v -35.933586 0.000000 -103.785393
v -35.933586 0.000000 -99.947586
v -38.303692 0.000000 -96.109772
v -38.303692 0.000000 -99.947586
v -46.452400 0.000000 -80.758530
v -49.455013 0.000000 -80.758530
v -44.070045 0.000000 -80.758530
v -44.070045 0.000000 -88.434151
v -46.452400 0.000000 -88.434151
v -49.455013 0.000000 -88.434151
v -44.070045 0.000000 -92.271957
v -46.452400 0.000000 -92.271957
v -49.455013 0.000000 -92.271957
v -40.350117 0.000000 -96.109772
v -40.350117 0.000000 -92.271957
v -42.158699 0.000000 -88.434151
v -42.158699 0.000000 -92.271957
v 35.814285 0.000000 -122.983864
v 35.814285 0.000000 -119.136635
v 35.814285 0.000000 -115.030029
v 35.814285 0.000000 -126.812256
v 75.756454 0.000000 -119.136635
v 75.756454 0.000000 -115.030029
v 75.756454 0.000000 -122.983864
v 75.756454 0.000000 -126.812256
v 95.727539 0.000000 -119.136635
v 95.727539 0.000000 -115.030029
v 95.727539 0.000000 -122.983864
v 95.727539 0.000000 -126.812256
v 105.713074 0.000000 -119.136635
v 105.713074 0.000000 -115.030029
v 105.713074 0.000000 -122.983864
v 105.713074 0.000000 -126.812256
v 85.387146 0.000000 -122.983864
v 85.387146 0.000000 -126.812256
v 85.387146 0.000000 -119.136635
v 85.387146 0.000000 -115.030029
v 55.785370 0.000000 -122.983864
v 55.785370 0.000000 -126.812256
v 55.785370 0.000000 -119.136635
v 55.785370 0.000000 -115.030029
v 65.770912 0.000000 -119.136635
v 65.770912 0.000000 -115.030029
v 65.770912 0.000000 -122.983864
v 65.770912 0.000000 -126.812256
v 115.698616 0.000000 -11.900261
v 105.713074 0.000000 -11.900261
v 95.727539 0.000000 -12.355782
v 105.713074 0.000000 -12.355782
v 58.160225 0.000000 1.000000
v 58.160225 0.000000 -1.000000
v 58.160225 0.000000 -4.241810
v 118.458321 0.000000 1.000000
v 118.458321 0.000000 -1.000000
v 118.458321 0.000000 -4.241810
v 115.698616 0.000000 -4.139593
v 105.713074 0.000000 -4.139593
v 95.727539 0.000000 -4.148973
v 105.713074 0.000000 -4.148973
vn -0.0000 1.0000 -0.0000
vt 0.000000 0.000000
vt 1.000000 0.000000
vt 1.000000 1.000000
vt 0.000000 1.000000
s 0
f 1/1/1 2/2/1 4/3/1 3/4/1
f 1/1/1 3/4/1 6/4/1 5/1/1
f 16/1/1 15/4/1 8/4/1 7/1/1
f 7/1/1 8/4/1 10/4/1 9/1/1
f 10/4/1 8/4/1 11/4/1 12/4/1
f 21/1/1 22/4/1 14/4/1 13/1/1
f 13/1/1 14/4/1 15/4/1 16/1/1
f 8/4/1 15/4/1 18/4/1 17/4/1
f 15/4/1 14/4/1 19/4/1 20/4/1
f 5/1/1 6/4/1 22/4/1 21/1/1
f 14/4/1 22/4/1 24/4/1 23/4/1
f 22/4/1 6/4/1 25/4/1 26/4/1
f 6/4/1 3/4/1 27/4/1 28/4/1
f 3/4/1 4/3/1 30/3/1 29/4/1
f 11/4/1 8/4/1 31/4/1 32/4/1
f 11/4/1 32/4/1 35/4/1 33/4/1
f 12/4/1 11/4/1 33/4/1 34/4/1
f 49/4/1 48/4/1 38/4/1 36/4/1
f 50/4/1 49/4/1 36/4/1 37/4/1
f 85/4/1 84/4/1 39/4/1 41/4/1
f 84/4/1 83/4/1 40/4/1 39/4/1
f 56/4/1 55/4/1 43/4/1 44/4/1
f 55/4/1 54/4/1 42/4/1 43/4/1
f 61/4/1 60/4/1 46/4/1 47/4/1
f 60/4/1 62/4/1 45/4/1 46/4/1
f 47/4/1 46/4/1 49/4/1 50/4/1
f 46/4/1 45/4/1 48/4/1 49/4/1
f 57/4/1 59/4/1 53/4/1 51/4/1
f 58/4/1 57/4/1 51/4/1 52/4/1
f 51/4/1 53/4/1 54/4/1 55/4/1
f 52/4/1 51/4/1 55/4/1 56/4/1
f 41/4/1 39/4/1 57/4/1 58/4/1
f 39/4/1 40/4/1 59/4/1 57/4/1
f 43/4/1 42/4/1 62/4/1 60/4/1
f 44/4/1 43/4/1 60/4/1 61/4/1
f 104/4/1 102/4/1 64/4/1 65/4/1
f 102/4/1 103/4/1 66/4/1 64/4/1
f 105/4/1 104/4/1 65/4/1 63/4/1
f 62/4/1 42/4/1 67/4/1 68/4/1
f 42/4/1 54/4/1 70/4/1 69/4/1
f 54/4/1 53/4/1 71/4/1 72/4/1
f 53/4/1 59/4/1 74/4/1 73/4/1
f 59/4/1 40/4/1 75/4/1 76/4/1
f 33/4/1 35/4/1 79/4/1 77/4/1
f 34/4/1 33/4/1 77/4/1 78/4/1
f 77/4/1 79/4/1 80/4/1 81/4/1
f 78/4/1 77/4/1 81/4/1 82/4/1
f 81/4/1 80/4/1 83/4/1 84/4/1
f 82/4/1 81/4/1 84/4/1 85/4/1
f 40/4/1 83/4/1 87/4/1 86/4/1
f 83/4/1 80/4/1 88/4/1 89/4/1
f 38/4/1 48/4/1 90/4/1 93/4/1
f 45/4/1 62/4/1 92/4/1 91/4/1
f 48/4/1 45/4/1 91/4/1 90/4/1
f 117/4/1 116/4/1 96/4/1 97/4/1
f 114/4/1 115/4/1 95/4/1 94/4/1
f 116/4/1 114/4/1 94/4/1 96/4/1
f 107/4/1 106/4/1 100/4/1 101/4/1
f 108/4/1 109/4/1 99/4/1 98/4/1
f 106/4/1 108/4/1 98/4/1 100/4/1
f 101/4/1 100/4/1 104/4/1 105/4/1
f 98/4/1 99/4/1 103/4/1 102/4/1
f 100/4/1 98/4/1 102/4/1 104/4/1
f 96/4/1 94/4/1 108/4/1 106/4/1
f 94/4/1 95/4/1 109/4/1 108/4/1
f 97/4/1 96/4/1 106/4/1 107/4/1
f 90/4/1 91/4/1 112/4/1 110/4/1
f 91/4/1 92/4/1 113/4/1 112/4/1
f 93/4/1 90/4/1 110/4/1 111/4/1
f 110/4/1 112/4/1 114/4/1 116/4/1
f 112/4/1 113/4/1 115/4/1 114/4/1
f 111/4/1 110/4/1 116/4/1 117/4/1
f 66/4/1 103/4/1 119/4/1 118/4/1
f 103/4/1 99/4/1 120/4/1 121/4/1
f 30/3/1 4/3/1 123/3/1 124/3/1
f 4/3/1 2/2/1 122/2/1 123/3/1
f 124/3/1 123/3/1 126/3/1 127/3/1
f 123/3/1 122/2/1 125/2/1 126/3/1
f 118/4/1 119/4/1 129/4/1 128/4/1
f 121/4/1 120/4/1 130/4/1 131/4/1
